<svg width="2426" height="947" viewBox="0 0 2426 947" fill="none" xmlns="http://www.w3.org/2000/svg">
<path d="M189.708 946.292C387.652 945.384 479.36 834.608 621.916 620.32L901.58 197.192C903.396 210.812 906.12 224.432 907.936 239.868C934.268 424.192 953.336 551.312 978.76 793.748C982.392 822.804 983.3 826.436 989.656 826.436C992.38 826.436 994.196 824.62 996.92 821.896C1000.55 818.264 1013.26 796.472 1023.25 780.128C1118.59 619.412 1215.75 458.696 1321.08 299.796C1426.4 140.896 1502.68 80.0599 1587.12 80.0599C1683.37 80.0599 1775.98 114.564 1807.76 114.564H1818.66C1834.1 112.748 1864.06 85.508 1864.06 76.428C1864.06 74.612 1864.06 73.704 1861.34 71.888C1849.53 65.532 1750.56 45.556 1647.05 45.556C1529.92 45.556 1439.12 104.576 1313.81 292.532C1218.47 435.088 1121.32 598.528 1025.98 756.52C1000.55 538.6 985.116 412.388 958.784 225.34C932.452 36.476 907.936 0.15594 849.824 0.15594C834.388 0.15594 816.228 3.78795 800.792 11.96C746.312 40.108 603.756 152.7 564.712 184.48L570.16 190.836C608.296 158.148 744.496 58.2679 774.46 46.4639C787.172 41.016 799.884 35.568 811.688 35.568C848.916 35.568 875.248 59.1759 898.856 184.48L611.928 616.688C476.636 820.08 395.824 909.972 263.256 910.88C156.112 910.88 64.4043 862.756 46.2443 868.204C26.2683 874.56 -4.60368 903.616 1.75232 910.88C8.10832 919.052 110.712 946.292 189.708 946.292ZM1521.08 820.08C1571.93 820.08 1617.33 804.644 1657.28 778.312C1719.93 737.452 1768.05 670.26 1798.93 593.08C1802.56 584.908 1797.11 581.276 1792.57 591.264C1742.63 709.304 1669.08 782.852 1551.95 782.852C1420.29 782.852 1334.03 690.236 1334.03 578.552C1334.03 548.588 1337.66 522.256 1344.02 498.648H1650.92C1683.61 498.648 1696.32 485.028 1697.23 464.144C1699.95 421.468 1663.63 347.92 1539.24 347.92C1410.3 347.92 1290.45 461.42 1290.45 601.252C1290.45 726.556 1375.8 820.08 1521.08 820.08ZM1519.26 364.264C1600.98 364.264 1637.3 414.204 1637.3 450.524C1637.3 461.42 1635.49 470.5 1630.04 477.764C1627.31 480.488 1610.97 486.844 1593.72 487.752C1534.7 488.66 1450.25 491.384 1345.83 491.384C1371.26 408.756 1435.73 364.264 1519.26 364.264ZM1706.94 811C1713.3 811 1765.05 809.184 1777.76 809.184C1788.66 809.184 1841.32 811 1864.02 811C1871.29 811 1871.29 802.828 1864.02 802.828C1834.97 802.828 1809.54 794.656 1809.54 769.232C1809.54 751.98 1818.62 732.004 1844.05 698.408L1923.95 593.988L2017.48 724.74C2062.88 788.3 2055.61 802.828 2002.04 802.828C1994.78 802.828 1996.59 811 2002.04 811C2026.56 811 2079.22 809.184 2091.93 809.184C2103.74 809.184 2170.02 811 2176.38 811C2182.73 811 2180.92 802.828 2174.56 802.828C2132.79 803.736 2120.99 791.024 2069.23 715.66L1959.36 563.116L2023.83 476.856C2083.76 396.044 2120.08 365.172 2163.66 365.172C2170.02 365.172 2170.02 357 2163.66 357C2157.31 357 2107.37 358.816 2084.67 358.816C2061.06 358.816 2025.65 357 2001.13 357C1994.78 357 1994.78 365.172 2001.13 365.172C2032 365.172 2056.52 369.712 2057.43 392.412C2057.43 409.664 2043.81 434.18 2016.57 471.408L1954.82 555.852L1881.28 454.156C1822.26 369.712 1828.61 365.172 1881.28 365.172C1889.45 365.172 1887.63 357 1880.37 357C1857.67 357 1810.45 358.816 1797.74 358.816C1785.03 358.816 1720.56 357 1715.11 357C1709.66 357 1711.48 365.172 1716.93 365.172C1758.7 364.264 1765.96 369.712 1844.05 480.488L1919.41 585.816L1838.6 691.144C1774.13 775.588 1744.17 801.012 1706.94 802.828C1700.58 802.828 1700.58 811 1706.94 811ZM2288.78 820.08C2344.17 820.08 2395.92 762.876 2424.98 705.672C2427.7 697.5 2416.81 693.868 2413.17 701.132C2388.66 763.784 2349.61 800.104 2316.02 800.104C2273.34 800.104 2250.64 768.324 2250.64 698.408V391.504C2281.51 391.504 2367.77 392.412 2380.49 392.412C2401.37 376.068 2411.36 364.264 2411.36 359.724C2411.36 357 2409.54 356.092 2391.38 357C2349.61 357 2279.7 357.908 2252.46 357.908V287.084C2252.46 283.452 2250.64 284.36 2248.83 286.176L2150.76 386.964C2148.95 388.78 2149.85 391.504 2150.76 391.504H2200.7V702.948C2200.7 788.3 2233.39 820.08 2288.78 820.08Z" fill="#0B0B0B"/>
</svg>
